# Blender v2.92.0 OBJ File: ''
# www.blender.org
o Icosphere
v 155.179184 432.463043 477.600555
v 91.211342 658.973022 280.724518
v 386.386749 476.546417 280.725433
v -406.272278 432.462891 295.170685
v -238.799164 658.972961 173.495819
v -147.588776 476.547180 454.222992
v -406.272278 432.463013 -295.170563
v -238.799164 658.972961 -173.495605
v -477.599731 476.546265 0.000078
v 155.179184 432.463226 -477.600433
v 91.211342 658.973145 -280.724274
v -147.588776 476.547302 -454.222809
v 502.179260 432.460754 0.000070
v 295.173126 658.971558 0.000107
v 386.386749 476.546478 -280.725250
v 0.000000 742.823792 0.000121
v 533.975342 181.369736 -173.496368
v 330.014648 181.369781 -454.225708
v 0.000000 181.369797 -561.454041
v -330.014648 181.369781 -454.225708
v -533.975342 181.369736 -173.496368
v -533.975342 181.369675 173.496429
v -330.014648 181.369629 454.225769
v 0.000000 181.369614 561.454041
v 330.014648 181.369629 454.225769
v 533.975342 181.369675 173.496429
v 93.298927 -5.228068 -493.667389
v 214.693237 -5.228121 -454.223938
v -440.676208 -5.228248 -241.281906
v -365.650635 -5.228078 -344.546356
v -440.676208 -5.228356 241.281906
v 93.299004 -5.228383 493.667358
v 498.337097 -5.228281 63.819420
v -200.087158 -5.228164 -471.596497
v -115.320038 -5.228053 -499.139008
v -365.650635 -5.228282 344.546326
v -200.087128 -5.228379 471.596497
v 498.337097 -5.228261 -63.819420
v 439.073883 -5.228091 -263.917603
v -115.320091 -5.228323 499.139008
v 386.684906 -5.228281 336.025208
v 439.073883 -5.228223 263.917603
v -510.346130 -5.228219 -44.562820
v -510.346130 -5.228248 44.562809
v 386.684906 -5.228110 -336.025238
v 214.693207 -5.228376 454.223938
v 123.195267 545.718079 379.162537
v 270.782959 454.504730 379.162964
v -193.193970 567.760071 313.859406
v -322.535706 545.718018 -234.333069
v -441.936005 454.504639 -147.585236
v -28.188713 567.760193 -367.473541
v 444.283020 454.503571 140.362747
v 398.676208 545.716187 0.000089
v 444.283020 454.503632 -140.362595
v 45.605671 700.898438 -140.362091
v 460.181030 328.958099 -227.110809
v 431.994995 181.369751 -313.861053
v -165.007324 181.369781 -507.839874
v -505.787537 328.957977 -86.748146
v -533.975342 181.369705 0.000030
v -165.007324 181.369629 507.839935
v 358.200684 328.958008 367.475586
v 431.994995 181.369659 313.861115
v 3.795212 454.505127 465.911743
v 153.996078 -5.228095 -473.945679
v -487.325775 88.070740 -207.389145
v -403.163422 -5.228163 -292.914124
v -385.345428 88.070641 347.753815
v 211.656830 88.070625 473.946533
v 516.156250 88.070724 -54.838470
v -100.043579 88.070816 -516.525269
v -57.660019 88.070869 -530.296509
v -347.832642 88.070671 399.386047
v -265.050903 88.070625 462.911133
v 516.156250 88.070740 -118.657898
v 486.524597 88.070824 -218.706985
v -157.703613 -5.228351 485.367737
v 358.349792 88.070679 395.125488
v 412.879395 -5.228251 299.971405
v -347.832642 88.070854 -399.386047
v -510.346130 -5.228233 -0.000008
v 460.330139 88.070808 -254.760803
v 300.689056 -5.228328 395.124573
v 272.353943 88.070625 454.224854
v -265.050903 88.070808 -462.911133
v -238.799164 658.972961 0.000107
v -358.199463 567.759644 86.747948
v 412.879395 -5.228101 -299.971436
v 340.779938 567.759033 140.362762
v -431.994995 181.369659 313.861115
v 358.349792 88.070831 -395.125488
v -276.930542 454.505157 -374.696716
v -119.399582 700.898376 86.747971
v -100.043564 88.070618 516.525269
v 77.589592 306.916321 519.527344
v 242.596924 306.916351 465.913177
v -57.660046 88.070648 530.296509
v 460.181030 328.958038 227.110931
v -368.143463 306.916382 -374.698120
v 193.192230 658.972290 -140.362091
v -470.123810 306.916351 -234.333466
v 238.799042 567.759827 -280.724762
v -505.787537 328.957977 86.748253
v 518.077271 306.915222 -86.748146
v -157.703598 -5.228108 -485.367737
v 358.200684 328.958130 -367.475464
v 518.077271 306.915222 86.748253
v 533.975342 181.369705 0.000030
v 238.799042 567.759705 280.724945
v -322.535706 545.717896 234.333252
v -276.930542 454.505035 374.696838
v -358.199463 567.759644 -86.747765
v 123.195267 545.718201 -379.162354
v 3.795212 454.505249 -465.911621
v 193.192230 658.972290 140.362305
v 340.779938 567.759033 -140.362579
v 147.586563 700.897705 0.000114
v 242.596924 306.916473 -465.913055
v -73.794388 328.958557 -507.838409
v -238.801712 328.958527 -454.224243
v -431.994995 181.369751 -313.861053
v -470.123810 306.916290 234.333557
v -238.801712 328.958405 454.224365
v -73.794388 328.958374 507.838531
v 165.007324 181.369629 507.839935
v 211.656784 88.070854 -473.946564
v 272.353943 88.070831 -454.224854
v -385.345428 88.070763 -347.753815
v -73.793907 658.972961 227.110153
v -487.325775 88.070663 207.389175
v 46.649502 88.070618 527.560669
v 516.156250 88.070694 118.657928
v -282.868896 -5.228121 -408.071411
v -28.188713 567.760071 367.473724
v -282.868896 -5.228330 408.071411
v 468.705505 -5.228176 -163.868500
v -11.010544 -5.228353 496.403198
v 460.330139 88.070702 254.760818
v 486.524597 88.070724 218.707016
v -522.160767 88.070732 64.466805
v -522.160767 88.070717 109.029617
v 300.689087 -5.228116 -395.124573
v 153.996109 -5.228379 473.945648
v -441.936005 454.504578 147.585388
v 45.605671 700.898438 140.362305
v 46.649464 88.070862 -527.560730
v -73.793915 658.973083 -227.109940
v -193.193970 567.760193 -313.859222
v -522.160767 88.070755 -109.029594
v -11.010551 -5.228061 -496.403198
v -119.399582 700.898376 -86.747742
v -368.143463 306.916260 374.698242
v 270.782959 454.504852 -379.162842
v -403.163422 -5.228319 292.914124
v 77.589592 306.916504 -519.527222
v -475.511169 -5.228233 -142.922363
v 498.337097 -5.228271 -0.000001
v -475.511169 -5.228302 142.922363
v 468.705505 -5.228252 163.868500
v 165.007324 181.369781 -507.839874
vt 0.818181 0.314921
vt 0.795453 0.354286
vt 0.772726 0.314921
vt 1.000000 0.314921
vt 0.977273 0.354286
vt 0.954545 0.314921
vt 0.272727 0.314921
vt 0.250000 0.354286
vt 0.227273 0.314921
vt 0.454545 0.314921
vt 0.431818 0.354286
vt 0.409090 0.314921
vt 0.636363 0.314921
vt 0.613636 0.354286
vt 0.590909 0.314921
vt 0.590909 0.393651
vt 0.568182 0.433017
vt 0.545455 0.393651
vt 0.568182 0.354286
vt 0.545454 0.314921
vt 0.522727 0.354286
vt 0.500000 0.314921
vt 0.409090 0.393651
vt 0.386363 0.433017
vt 0.363636 0.393651
vt 0.386363 0.354286
vt 0.363636 0.314921
vt 0.340909 0.354286
vt 0.318182 0.314921
vt 0.227273 0.393651
vt 0.204545 0.433017
vt 0.181818 0.393651
vt 0.204545 0.354286
vt 0.181818 0.314921
vt 0.159090 0.354286
vt 0.136363 0.314921
vt 0.954545 0.393651
vt 0.931818 0.433017
vt 0.909090 0.393651
vt 0.931818 0.354286
vt 0.909091 0.314921
vt 0.886363 0.354286
vt 0.863636 0.314921
vt 0.772726 0.393651
vt 0.749999 0.433017
vt 0.727272 0.393651
vt 0.749999 0.354286
vt 0.727272 0.314921
vt 0.704545 0.354286
vt 0.681818 0.314921
vt 0.590909 0.236191
vt 0.613636 0.275556
vt 0.568182 0.275556
vt 0.545455 0.236191
vt 0.500000 0.236191
vt 0.522727 0.275556
vt 0.477273 0.275556
vt 0.409090 0.236191
vt 0.431818 0.275556
vt 0.386363 0.275556
vt 0.363636 0.236191
vt 0.318182 0.236191
vt 0.340909 0.275556
vt 0.295455 0.275556
vt 0.227273 0.236191
vt 0.250000 0.275556
vt 0.204545 0.275556
vt 0.181818 0.236191
vt 0.136363 0.236191
vt 0.159090 0.275556
vt 0.113636 0.275556
vt 0.954545 0.236191
vt 0.977273 0.275556
vt 0.931818 0.275556
vt 0.909090 0.236191
vt 0.863635 0.236191
vt 0.886363 0.275556
vt 0.840908 0.275556
vt 0.772726 0.236191
vt 0.795453 0.275556
vt 0.749999 0.275556
vt 0.727272 0.236191
vt 0.681818 0.236191
vt 0.704545 0.275556
vt 0.659091 0.275556
vt 0.454545 0.236191
vt 0.468912 0.211306
vt 0.485632 0.211306
vt 0.272727 0.236191
vt 0.287094 0.211306
vt 0.303815 0.211306
vt 0.090908 0.236191
vt 0.045454 0.236191
vt 0.076541 0.211306
vt 0.818181 0.236191
vt 0.803813 0.211306
vt 0.636364 0.236191
vt 0.621996 0.211306
vt 0.380525 0.206937
vt 0.392200 0.206937
vt 0.437825 0.186421
vt 0.423458 0.211306
vt 0.406568 0.182052
vt 0.074189 0.186421
vt 0.059822 0.211306
vt 0.042932 0.182052
vt 0.619643 0.186421
vt 0.605276 0.211306
vt 0.588386 0.182052
vt 0.897415 0.177683
vt 0.880525 0.206937
vt 0.866158 0.182052
vt 0.351961 0.177683
vt 0.335072 0.206937
vt 0.320704 0.182052
vt 0.738947 0.177683
vt 0.710382 0.206937
vt 0.727272 0.177683
vt 0.193493 0.177683
vt 0.164928 0.206937
vt 0.181818 0.177683
vt 0.562344 0.206937
vt 0.574019 0.206937
vt 0.256007 0.186421
vt 0.241640 0.211306
vt 0.224750 0.182052
vt 0.801461 0.186421
vt 0.787094 0.211306
vt 0.770204 0.182052
vt 0.715597 0.177683
vt 0.698707 0.206937
vt 0.684340 0.182052
vt 0.170143 0.177683
vt 0.153253 0.206937
vt 0.138886 0.182052
vt 0.533779 0.177683
vt 0.516890 0.206937
vt 0.502522 0.182052
vt 0.920766 0.177683
vt 0.892200 0.206937
vt 0.909091 0.177683
vt 0.755836 0.206937
vt 0.210383 0.206937
vt 0.937656 0.206937
vt 0.636363 0.186421
vt 0.653083 0.186421
vt 0.818181 0.186421
vt 0.834901 0.186421
vt 0.090909 0.186421
vt 0.107629 0.186421
vt 0.471265 0.186421
vt 0.121996 0.211306
vt 0.667451 0.211306
vt 0.545454 0.177683
vt 0.557129 0.177683
vt 0.289447 0.186421
vt 0.849268 0.211306
vt 0.028564 0.206937
vt 0.011675 0.177683
vt 0.375311 0.177684
vt 0.363636 0.177684
vt 0.068181 0.275556
vt 0.090909 0.314921
vt 0.272727 0.186421
vt 0.454545 0.186421
vt 0.659091 0.354286
vt 0.681818 0.393651
vt 0.704545 0.433017
vt 0.727272 0.472382
vt 0.840908 0.354286
vt 0.863635 0.393651
vt 0.886362 0.433017
vt 0.909090 0.472382
vt 0.113636 0.354286
vt 0.136363 0.393651
vt 0.159090 0.433017
vt 0.181818 0.472382
vt 0.295455 0.354286
vt 0.318182 0.393651
vt 0.340909 0.433017
vt 0.363636 0.472382
vt 0.477273 0.354286
vt 0.500000 0.393651
vt 0.522727 0.433017
vt 0.545454 0.472382
vn -0.4089 -0.6617 -0.6284
vn 0.4713 -0.6617 -0.5831
vn 0.7002 -0.6617 0.2680
vn -0.0385 -0.6617 0.7488
vn -0.7240 -0.6617 0.1947
vn -0.2680 -0.9435 0.1947
vn -0.4911 -0.7947 0.3568
vn -0.4089 -0.6617 0.6284
vn 0.1024 -0.9435 0.3151
vn 0.1876 -0.7947 0.5773
vn 0.4713 -0.6617 0.5831
vn 0.3313 -0.9435 0.0000
vn 0.6071 -0.7947 0.0000
vn 0.7002 -0.6617 -0.2680
vn 0.1024 -0.9435 -0.3151
vn 0.1876 -0.7947 -0.5773
vn -0.0385 -0.6617 -0.7488
vn -0.2680 -0.9435 -0.1947
vn -0.4911 -0.7947 -0.3568
vn -0.7240 -0.6617 -0.1947
vn -0.8897 -0.3304 0.3151
vn -0.7947 -0.1876 0.5773
vn -0.5746 -0.3304 0.7488
vn 0.0247 -0.3304 0.9435
vn 0.3035 -0.1876 0.9342
vn 0.5346 -0.3304 0.7779
vn 0.9050 -0.3304 0.2680
vn 0.9822 -0.1876 0.0000
vn 0.9050 -0.3304 -0.2680
vn 0.5346 -0.3304 -0.7779
vn 0.3035 -0.1876 -0.9342
vn 0.0247 -0.3304 -0.9435
vn -0.5746 -0.3304 -0.7488
vn -0.7947 -0.1876 -0.5773
vn -0.8897 -0.3304 -0.3151
vn -0.3066 -0.1256 0.9435
vn -0.3035 0.1876 0.9342
vn 0.8026 -0.1256 0.5831
vn 0.7947 0.1876 0.5773
vn 0.8026 -0.1256 -0.5831
vn 0.7947 0.1876 -0.5773
vn -0.3066 -0.1256 -0.9435
vn -0.3035 0.1876 -0.9342
vn -0.9921 -0.1256 0.0000
vn -0.9822 0.1876 0.0000
vn 0.3066 0.1256 0.9435
vn -0.0247 0.3304 0.9435
vn 0.5746 0.3304 -0.7488
vn -0.9050 0.3304 0.2680
vn -0.0247 0.3304 -0.9435
vn 0.5746 0.3304 0.7488
vn -0.8026 0.1256 -0.5831
vn 0.9921 0.1256 0.0000
vn -0.8026 0.1256 0.5831
vn 0.8897 0.3304 0.3151
vn -0.5346 0.3304 -0.7779
vn -0.9050 0.3304 -0.2680
vn 0.8897 0.3304 -0.3151
vn -0.5346 0.3304 0.7779
vn 0.3066 0.1256 -0.9435
s 1
f 1/1/1 47/2/1 48/3/1
f 4/4/2 111/5/2 112/6/2
f 7/7/3 50/8/3 51/9/3
f 10/10/4 114/11/4 115/12/4
f 13/13/5 54/14/5 55/15/5
f 14/16/6 118/17/6 101/18/6
f 14/16/7 101/18/7 117/19/7
f 15/20/8 103/21/8 154/22/8
f 11/23/9 56/24/9 148/25/9
f 11/23/10 148/25/10 52/26/10
f 12/27/11 149/28/11 93/29/11
f 8/30/12 152/31/12 87/32/12
f 8/30/13 87/32/13 113/33/13
f 9/34/14 88/35/14 145/36/14
f 5/37/15 94/38/15 130/39/15
f 5/37/16 130/39/16 49/40/16
f 6/41/17 135/42/17 65/43/17
f 2/44/18 146/45/18 116/46/18
f 2/44/19 116/46/19 110/47/19
f 3/48/20 90/49/20 53/50/20
f 17/51/21 105/52/21 57/53/21
f 17/51/22 57/53/22 58/54/22
f 18/55/23 107/56/23 119/57/23
f 19/58/24 156/59/24 120/60/24
f 19/58/25 120/60/25 59/61/25
f 20/62/26 121/63/26 100/64/26
f 21/65/27 102/66/27 60/67/27
f 21/65/28 60/67/28 61/68/28
f 22/69/29 104/70/29 123/71/29
f 23/72/30 153/73/30 124/74/30
f 23/72/31 124/74/31 62/75/31
f 24/76/32 125/77/32 96/78/32
f 25/79/33 97/80/33 63/81/33
f 25/79/34 63/81/34 64/82/34
f 26/83/35 99/84/35 108/85/35
f 18/55/36 119/57/36 161/86/36
f 18/55/37 127/87/37 128/88/37
f 20/62/38 100/64/38 122/89/38
f 20/62/39 129/90/39 81/91/39
f 22/69/40 123/71/40 91/92/40
f 23/93/41 69/94/41 91/92/41
f 24/76/42 96/78/42 126/95/42
f 25/79/43 70/96/43 126/95/43
f 26/83/44 108/85/44 109/97/44
f 17/51/45 71/98/45 109/97/45
f 19/58/46 72/99/46 73/100/46
f 27/101/47 147/102/47 151/103/47
f 36/104/48 74/105/48 136/106/48
f 38/107/49 76/108/49 137/109/49
f 40/110/50 98/111/50 138/112/50
f 34/113/51 86/114/51 134/115/51
f 41/116/52 139/117/52 80/118/52
f 43/119/53 141/120/53 82/121/53
f 17/51/54 83/122/54 77/123/54
f 29/124/55 67/125/55 157/126/55
f 46/127/56 85/128/56 84/129/56
f 42/130/57 140/131/57 160/132/57
f 44/133/58 142/134/58 159/135/58
f 45/136/59 92/137/59 143/138/59
f 37/139/60 95/140/60 78/141/60
f 18/55/37 161/86/37 127/87/37
f 20/62/39 122/89/39 129/90/39
f 23/93/41 74/105/41 69/94/41
f 25/79/43 85/128/43 70/96/43
f 17/51/45 76/108/45 71/98/45
f 19/58/46 59/61/46 72/99/46
f 41/116/52 79/142/52 139/117/52
f 43/119/53 150/143/53 141/120/53
f 17/51/54 58/54/54 83/122/54
f 37/139/60 75/144/60 95/140/60
f 95/140/60 62/75/60 24/76/60
f 95/140/60 75/144/60 62/75/60
f 75/144/60 23/72/60 62/75/60
f 83/122/54 92/137/54 45/136/54
f 83/122/54 58/54/54 92/137/54
f 58/54/54 18/55/54 92/137/54
f 141/120/53 61/68/53 22/69/53
f 141/120/53 150/143/53 61/68/53
f 150/143/53 21/65/53 61/68/53
f 139/117/52 64/82/52 26/83/52
f 139/117/52 79/142/52 64/82/52
f 79/142/52 25/79/52 64/82/52
f 72/99/46 86/114/46 34/113/46
f 72/99/46 59/61/46 86/114/46
f 59/61/46 20/62/46 86/114/46
f 71/98/45 158/145/45 33/146/45
f 71/98/45 76/108/45 158/145/45
f 76/108/45 38/107/45 158/145/45
f 70/96/43 144/147/43 32/148/43
f 70/96/43 85/128/43 144/147/43
f 85/128/43 46/127/43 144/147/43
f 69/94/41 155/149/41 31/150/41
f 69/94/41 74/105/41 155/149/41
f 74/105/41 36/104/41 155/149/41
f 129/90/39 67/125/39 29/124/39
f 129/90/39 122/89/39 67/125/39
f 122/89/39 21/65/39 67/125/39
f 127/87/37 147/102/37 27/101/37
f 127/87/37 161/86/37 147/102/37
f 161/86/37 19/58/37 147/102/37
f 78/141/60 98/111/60 40/110/60
f 78/141/60 95/140/60 98/111/60
f 95/140/60 24/76/60 98/111/60
f 143/138/59 128/88/59 28/151/59
f 143/138/59 92/137/59 128/88/59
f 92/137/59 18/55/59 128/88/59
f 159/135/58 131/152/58 31/150/58
f 159/135/58 142/134/58 131/152/58
f 142/134/58 22/69/58 131/152/58
f 160/132/57 133/153/57 33/146/57
f 160/132/57 140/131/57 133/153/57
f 140/131/57 26/83/57 133/153/57
f 84/129/56 79/142/56 41/116/56
f 84/129/56 85/128/56 79/142/56
f 85/128/56 25/79/56 79/142/56
f 157/126/55 150/143/55 43/119/55
f 157/126/55 67/125/55 150/143/55
f 67/125/55 21/65/55 150/143/55
f 77/123/54 89/154/54 39/155/54
f 77/123/54 83/122/54 89/154/54
f 83/122/54 45/136/54 89/154/54
f 82/121/53 142/134/53 44/133/53
f 82/121/53 141/120/53 142/134/53
f 141/120/53 22/69/53 142/134/53
f 80/118/52 140/131/52 42/130/52
f 80/118/52 139/117/52 140/131/52
f 139/117/52 26/83/52 140/131/52
f 134/115/51 81/91/51 30/156/51
f 134/115/51 86/114/51 81/91/51
f 86/114/51 20/62/51 81/91/51
f 138/112/50 132/157/50 32/148/50
f 138/112/50 98/111/50 132/157/50
f 98/111/50 24/76/50 132/157/50
f 137/109/49 77/123/49 39/155/49
f 137/109/49 76/108/49 77/123/49
f 76/108/49 17/51/49 77/123/49
f 136/106/48 75/158/48 37/159/48
f 136/106/48 74/105/48 75/158/48
f 74/105/48 23/93/48 75/158/48
f 151/103/47 73/100/47 35/160/47
f 151/103/47 147/102/47 73/100/47
f 147/102/47 19/58/47 73/100/47
f 73/100/46 106/161/46 35/160/46
f 73/100/46 72/99/46 106/161/46
f 72/99/46 34/113/46 106/161/46
f 109/97/45 133/153/45 26/83/45
f 109/97/45 71/98/45 133/153/45
f 71/98/45 33/146/45 133/153/45
f 109/97/44 105/52/44 17/51/44
f 109/97/44 108/85/44 105/52/44
f 108/85/44 13/13/44 105/52/44
f 126/95/43 132/157/43 24/76/43
f 126/95/43 70/96/43 132/157/43
f 70/96/43 32/148/43 132/157/43
f 126/95/42 97/80/42 25/79/42
f 126/95/42 96/78/42 97/80/42
f 96/78/42 1/1/42 97/80/42
f 91/92/41 131/152/41 22/69/41
f 91/92/41 69/94/41 131/152/41
f 69/94/41 31/150/41 131/152/41
f 91/92/40 153/162/40 23/93/40
f 91/92/40 123/71/40 153/162/40
f 123/71/40 4/163/40 153/162/40
f 81/91/39 68/164/39 30/156/39
f 81/91/39 129/90/39 68/164/39
f 129/90/39 29/124/39 68/164/39
f 122/89/38 102/66/38 21/65/38
f 122/89/38 100/64/38 102/66/38
f 100/64/38 7/7/38 102/66/38
f 128/88/37 66/165/37 28/151/37
f 128/88/37 127/87/37 66/165/37
f 127/87/37 27/101/37 66/165/37
f 161/86/36 156/59/36 19/58/36
f 161/86/36 119/57/36 156/59/36
f 119/57/36 10/10/36 156/59/36
f 108/85/35 53/50/35 13/13/35
f 108/85/35 99/84/35 53/50/35
f 99/84/35 3/48/35 53/50/35
f 64/82/34 99/84/34 26/83/34
f 64/82/34 63/81/34 99/84/34
f 63/81/34 3/48/34 99/84/34
f 63/81/33 48/3/33 3/48/33
f 63/81/33 97/80/33 48/3/33
f 97/80/33 1/1/33 48/3/33
f 96/78/32 65/43/32 1/1/32
f 96/78/32 125/77/32 65/43/32
f 125/77/32 6/41/32 65/43/32
f 62/75/31 125/77/31 24/76/31
f 62/75/31 124/74/31 125/77/31
f 124/74/31 6/41/31 125/77/31
f 124/74/30 112/6/30 6/41/30
f 124/74/30 153/73/30 112/6/30
f 153/73/30 4/4/30 112/6/30
f 123/71/29 145/36/29 4/163/29
f 123/71/29 104/70/29 145/36/29
f 104/70/29 9/34/29 145/36/29
f 61/68/28 104/70/28 22/69/28
f 61/68/28 60/67/28 104/70/28
f 60/67/28 9/34/28 104/70/28
f 60/67/27 51/9/27 9/34/27
f 60/67/27 102/66/27 51/9/27
f 102/66/27 7/7/27 51/9/27
f 100/64/26 93/29/26 7/7/26
f 100/64/26 121/63/26 93/29/26
f 121/63/26 12/27/26 93/29/26
f 59/61/25 121/63/25 20/62/25
f 59/61/25 120/60/25 121/63/25
f 120/60/25 12/27/25 121/63/25
f 120/60/24 115/12/24 12/27/24
f 120/60/24 156/59/24 115/12/24
f 156/59/24 10/10/24 115/12/24
f 119/57/23 154/22/23 10/10/23
f 119/57/23 107/56/23 154/22/23
f 107/56/23 15/20/23 154/22/23
f 58/54/22 107/56/22 18/55/22
f 58/54/22 57/53/22 107/56/22
f 57/53/22 15/20/22 107/56/22
f 57/53/21 55/15/21 15/20/21
f 57/53/21 105/52/21 55/15/21
f 105/52/21 13/13/21 55/15/21
f 53/50/20 54/166/20 13/13/20
f 53/50/20 90/49/20 54/166/20
f 90/49/20 14/167/20 54/166/20
f 110/47/19 90/49/19 3/48/19
f 110/47/19 116/46/19 90/49/19
f 116/46/19 14/167/19 90/49/19
f 116/46/18 118/168/18 14/167/18
f 116/46/18 146/45/18 118/168/18
f 146/45/18 16/169/18 118/168/18
f 65/43/17 47/170/17 1/1/17
f 65/43/17 135/42/17 47/170/17
f 135/42/17 2/171/17 47/170/17
f 49/40/16 135/42/16 6/41/16
f 49/40/16 130/39/16 135/42/16
f 130/39/16 2/171/16 135/42/16
f 130/39/15 146/172/15 2/171/15
f 130/39/15 94/38/15 146/172/15
f 94/38/15 16/173/15 146/172/15
f 145/36/14 111/174/14 4/163/14
f 145/36/14 88/35/14 111/174/14
f 88/35/14 5/175/14 111/174/14
f 113/33/13 88/35/13 9/34/13
f 113/33/13 87/32/13 88/35/13
f 87/32/13 5/175/13 88/35/13
f 87/32/12 94/176/12 5/175/12
f 87/32/12 152/31/12 94/176/12
f 152/31/12 16/177/12 94/176/12
f 93/29/11 50/178/11 7/7/11
f 93/29/11 149/28/11 50/178/11
f 149/28/11 8/179/11 50/178/11
f 52/26/10 149/28/10 12/27/10
f 52/26/10 148/25/10 149/28/10
f 148/25/10 8/179/10 149/28/10
f 148/25/9 152/180/9 8/179/9
f 148/25/9 56/24/9 152/180/9
f 56/24/9 16/181/9 152/180/9
f 154/22/8 114/182/8 10/10/8
f 154/22/8 103/21/8 114/182/8
f 103/21/8 11/183/8 114/182/8
f 117/19/7 103/21/7 15/20/7
f 117/19/7 101/18/7 103/21/7
f 101/18/7 11/183/7 103/21/7
f 101/18/6 56/184/6 11/183/6
f 101/18/6 118/17/6 56/184/6
f 118/17/6 16/185/6 56/184/6
f 55/15/5 117/19/5 15/20/5
f 55/15/5 54/14/5 117/19/5
f 54/14/5 14/16/5 117/19/5
f 115/12/4 52/26/4 12/27/4
f 115/12/4 114/11/4 52/26/4
f 114/11/4 11/23/4 52/26/4
f 51/9/3 113/33/3 9/34/3
f 51/9/3 50/8/3 113/33/3
f 50/8/3 8/30/3 113/33/3
f 112/6/2 49/40/2 6/41/2
f 112/6/2 111/5/2 49/40/2
f 111/5/2 5/37/2 49/40/2
f 48/3/1 110/47/1 3/48/1
f 48/3/1 47/2/1 110/47/1
f 47/2/1 2/44/1 110/47/1
